<svg width="56" height="69" viewBox="0 0 56 69" fill="none" xmlns="http://www.w3.org/2000/svg">
<path d="M27.9997 28C33.1563 28 37.333 23.8233 37.333 18.6666C37.333 13.51 33.1563 9.33331 27.9997 9.33331C22.843 9.33331 18.6663 13.51 18.6663 18.6666C18.6663 23.8233 22.843 28 27.9997 28ZM27.9997 32.6666C21.7697 32.6666 9.33301 35.7933 9.33301 42V46.6666H46.6663V42C46.6663 35.7933 34.2297 32.6666 27.9997 32.6666Z" fill="#785D13"/>
<path d="M22.335 56.969H23.578V58.311C23.578 58.6557 23.5413 59.0187 23.468 59.4C23.402 59.774 23.27 60.137 23.072 60.489C22.874 60.841 22.5843 61.1527 22.203 61.424C22.137 61.3433 22.0417 61.248 21.917 61.138C21.7997 61.0207 21.675 60.9107 21.543 60.808C21.411 60.7053 21.301 60.6283 21.213 60.577C21.5503 60.3497 21.796 60.1077 21.95 59.851C22.1113 59.5943 22.214 59.3303 22.258 59.059C22.3093 58.7877 22.335 58.531 22.335 58.289V56.969ZM24.799 56.969H26.042V59.444C26.042 59.5907 26.0493 59.6823 26.064 59.719C26.086 59.7557 26.1263 59.774 26.185 59.774C26.1997 59.774 26.2253 59.774 26.262 59.774C26.2987 59.774 26.3353 59.774 26.372 59.774C26.416 59.774 26.4453 59.774 26.46 59.774C26.504 59.774 26.5407 59.752 26.57 59.708C26.5993 59.6567 26.6213 59.554 26.636 59.4C26.6507 59.2387 26.6617 58.9967 26.669 58.674C26.7863 58.7767 26.9513 58.872 27.164 58.96C27.384 59.0407 27.5747 59.103 27.736 59.147C27.6993 59.6017 27.637 59.9573 27.549 60.214C27.461 60.4707 27.34 60.6503 27.186 60.753C27.0393 60.8483 26.845 60.896 26.603 60.896C26.5443 60.896 26.4747 60.896 26.394 60.896C26.3133 60.896 26.2327 60.896 26.152 60.896C26.0787 60.896 26.0127 60.896 25.954 60.896C25.6607 60.896 25.4297 60.852 25.261 60.764C25.0923 60.676 24.9713 60.5293 24.898 60.324C24.832 60.1113 24.799 59.8217 24.799 59.455V56.969ZM23.38 62.579C23.754 63.3637 24.3187 64.042 25.074 64.614C25.8293 65.1787 26.724 65.5857 27.758 65.835C27.6627 65.923 27.56 66.033 27.45 66.165C27.34 66.3043 27.2373 66.4437 27.142 66.583C27.0467 66.7297 26.966 66.8617 26.9 66.979C25.8073 66.649 24.8687 66.143 24.084 65.461C23.3067 64.7717 22.6833 63.9357 22.214 62.953L23.38 62.579ZM25.833 61.402H26.086L26.317 61.347L27.175 61.666C26.9843 62.4067 26.724 63.063 26.394 63.635C26.0713 64.1997 25.6863 64.6983 25.239 65.131C24.7917 65.5637 24.2893 65.9303 23.732 66.231C23.1747 66.5317 22.577 66.781 21.939 66.979C21.895 66.8617 21.8327 66.7297 21.752 66.583C21.6713 66.4437 21.5833 66.3043 21.488 66.165C21.4 66.0257 21.3157 65.9083 21.235 65.813C21.7997 65.6737 22.3313 65.483 22.83 65.241C23.3287 64.9917 23.776 64.691 24.172 64.339C24.5753 63.987 24.9163 63.58 25.195 63.118C25.481 62.656 25.6937 62.15 25.833 61.6V61.402ZM21.796 61.402H26.35V62.579H21.796V61.402ZM22.83 56.969H25.481V58.124H22.83V56.969ZM17.858 60.027H21.268V61.028H17.858V60.027ZM17.902 57.002H21.246V57.992H17.902V57.002ZM17.858 61.534H21.268V62.524H17.858V61.534ZM17.33 58.476H21.653V59.521H17.33V58.476ZM18.463 63.052H21.246V66.407H18.463V65.362H20.113V64.097H18.463V63.052ZM17.825 63.052H18.947V66.836H17.825V63.052ZM30.453 59.972H36.536V61.237H30.453V59.972ZM33.5 62.612H37.207V63.855H33.5V62.612ZM32.807 60.709H34.182V66.022L32.807 65.857V60.709ZM30.178 61.842L31.553 61.985C31.4063 63.107 31.157 64.097 30.805 64.955C30.453 65.813 29.9617 66.5133 29.331 67.056C29.2577 66.9753 29.155 66.8763 29.023 66.759C28.891 66.6417 28.7517 66.528 28.605 66.418C28.4657 66.308 28.3447 66.22 28.242 66.154C28.836 65.714 29.2833 65.1237 29.584 64.383C29.8847 63.635 30.0827 62.788 30.178 61.842ZM31.245 63.228C31.4137 63.7267 31.6337 64.1337 31.905 64.449C32.1837 64.757 32.5027 64.9917 32.862 65.153C33.2287 65.307 33.6283 65.4133 34.061 65.472C34.4937 65.5307 34.952 65.56 35.436 65.56C35.5533 65.56 35.711 65.56 35.909 65.56C36.1143 65.56 36.338 65.56 36.58 65.56C36.8293 65.56 37.0823 65.56 37.339 65.56C37.5957 65.5527 37.834 65.549 38.054 65.549C38.274 65.5417 38.4573 65.5343 38.604 65.527C38.538 65.637 38.472 65.7727 38.406 65.934C38.3473 66.088 38.2923 66.2493 38.241 66.418C38.1897 66.5867 38.153 66.7407 38.131 66.88H37.57H35.37C34.732 66.88 34.1453 66.836 33.61 66.748C33.0747 66.66 32.5907 66.4987 32.158 66.264C31.7327 66.0367 31.3513 65.7067 31.014 65.274C30.684 64.8413 30.4017 64.2767 30.167 63.58L31.245 63.228ZM32.785 56.672H34.193V58.674H32.785V56.672ZM28.781 57.783H38.23V60.544H36.877V59.026H30.079V60.544H28.781V57.783Z" fill="#785D13"/>
</svg>
