<svg width="56" height="70" viewBox="0 0 56 70" fill="none" xmlns="http://www.w3.org/2000/svg">
<path d="M27.9993 4.66669C15.1193 4.66669 4.66602 15.12 4.66602 28C4.66602 40.88 15.1193 51.3334 27.9993 51.3334C40.8793 51.3334 51.3327 40.88 51.3327 28C51.3327 15.12 40.8793 4.66669 27.9993 4.66669ZM39.666 30.3334H30.3327V39.6667H25.666V30.3334H16.3327V25.6667H25.666V16.3334H30.3327V25.6667H39.666V30.3334Z" fill="#785D13"/>
<path d="M19.324 61.48V65.908H17.92V62.812H16.528V61.48H19.324ZM19.324 65.284C19.572 65.676 19.92 65.964 20.368 66.148C20.816 66.332 21.352 66.436 21.976 66.46C22.328 66.476 22.744 66.488 23.224 66.496C23.712 66.496 24.224 66.492 24.76 66.484C25.296 66.476 25.82 66.46 26.332 66.436C26.852 66.412 27.312 66.384 27.712 66.352C27.664 66.464 27.608 66.608 27.544 66.784C27.48 66.96 27.42 67.14 27.364 67.324C27.316 67.508 27.28 67.672 27.256 67.816C26.896 67.84 26.484 67.856 26.02 67.864C25.556 67.88 25.08 67.888 24.592 67.888C24.104 67.896 23.632 67.896 23.176 67.888C22.72 67.88 22.312 67.868 21.952 67.852C21.216 67.82 20.588 67.704 20.068 67.504C19.548 67.312 19.088 66.984 18.688 66.52C18.424 66.744 18.152 66.976 17.872 67.216C17.6 67.456 17.3 67.704 16.972 67.96L16.264 66.46C16.544 66.292 16.836 66.108 17.14 65.908C17.444 65.708 17.736 65.5 18.016 65.284H19.324ZM16.54 57.952L17.608 57.088C17.856 57.248 18.108 57.436 18.364 57.652C18.62 57.86 18.86 58.076 19.084 58.3C19.308 58.516 19.488 58.716 19.624 58.9L18.484 59.86C18.364 59.668 18.196 59.46 17.98 59.236C17.772 59.012 17.54 58.788 17.284 58.564C17.028 58.332 16.78 58.128 16.54 57.952ZM21.124 57.988H26.38V61.372H21.124V60.196H24.988V59.152H21.124V57.988ZM22.696 56.788L24.4 56.992C24.256 57.32 24.116 57.632 23.98 57.928C23.844 58.224 23.72 58.48 23.608 58.696L22.252 58.444C22.34 58.204 22.424 57.932 22.504 57.628C22.592 57.316 22.656 57.036 22.696 56.788ZM20.428 57.988H21.82V65.776H20.428V57.988ZM21.232 62.176H26.86V65.776H21.232V64.576H25.444V63.364H21.232V62.176ZM35.356 65.608H38.428V66.988H35.356V65.608ZM28.6 58.96H32.992V60.364H28.6V58.96ZM34.708 58.18H39.076V67.744H37.636V59.572H36.088V67.828H34.708V58.18ZM32.644 58.96H34.036C34.036 58.96 34.036 59.004 34.036 59.092C34.036 59.172 34.036 59.264 34.036 59.368C34.036 59.472 34.032 59.556 34.024 59.62C34 60.9 33.972 61.992 33.94 62.896C33.916 63.792 33.884 64.528 33.844 65.104C33.812 65.68 33.764 66.132 33.7 66.46C33.636 66.788 33.556 67.02 33.46 67.156C33.324 67.356 33.184 67.5 33.04 67.588C32.896 67.676 32.724 67.74 32.524 67.78C32.348 67.82 32.132 67.84 31.876 67.84C31.62 67.848 31.352 67.844 31.072 67.828C31.064 67.62 31.024 67.376 30.952 67.096C30.88 66.824 30.784 66.588 30.664 66.388C30.904 66.404 31.124 66.416 31.324 66.424C31.524 66.432 31.68 66.436 31.792 66.436C31.88 66.436 31.956 66.42 32.02 66.388C32.084 66.356 32.144 66.296 32.2 66.208C32.264 66.12 32.32 65.936 32.368 65.656C32.416 65.376 32.456 64.968 32.488 64.432C32.52 63.896 32.548 63.208 32.572 62.368C32.596 61.52 32.62 60.488 32.644 59.272V58.96ZM30.028 56.98H31.444C31.444 58.164 31.424 59.296 31.384 60.376C31.352 61.448 31.272 62.456 31.144 63.4C31.016 64.344 30.804 65.212 30.508 66.004C30.22 66.788 29.816 67.48 29.296 68.08C29.224 67.96 29.128 67.832 29.008 67.696C28.888 67.56 28.76 67.432 28.624 67.312C28.488 67.192 28.36 67.096 28.24 67.024C28.616 66.6 28.916 66.124 29.14 65.596C29.372 65.06 29.548 64.476 29.668 63.844C29.796 63.212 29.884 62.536 29.932 61.816C29.98 61.088 30.008 60.32 30.016 59.512C30.024 58.696 30.028 57.852 30.028 56.98Z" fill="#785D13"/>
</svg>
