<svg width="56" height="69" viewBox="0 0 56 69" fill="none" xmlns="http://www.w3.org/2000/svg">
<path d="M42.0003 7C44.4757 7 46.8496 7.98333 48.6 9.73367C50.3503 11.484 51.3337 13.858 51.3337 16.3333V35C51.3337 37.4754 50.3503 39.8493 48.6 41.5997C46.8496 43.35 44.4757 44.3333 42.0003 44.3333H30.9777L19.8663 50.9997C19.5317 51.2005 19.1521 51.3142 18.7621 51.3303C18.3722 51.3464 17.9845 51.2645 17.6344 51.092C17.2843 50.9195 16.9831 50.662 16.7583 50.343C16.5335 50.024 16.3923 49.6537 16.3477 49.266L16.3337 49V44.3333H14.0003C11.6058 44.3333 9.30279 43.413 7.56776 41.7626C5.83274 40.1123 4.79839 37.8582 4.67866 35.4667L4.66699 35V16.3333C4.66699 13.858 5.65032 11.484 7.40066 9.73367C9.151 7.98333 11.525 7 14.0003 7H42.0003ZM32.667 28H18.667C18.0482 28 17.4547 28.2458 17.0171 28.6834C16.5795 29.121 16.3337 29.7145 16.3337 30.3333C16.3337 30.9522 16.5795 31.5457 17.0171 31.9832C17.4547 32.4208 18.0482 32.6667 18.667 32.6667H32.667C33.2858 32.6667 33.8793 32.4208 34.3169 31.9832C34.7545 31.5457 35.0003 30.9522 35.0003 30.3333C35.0003 29.7145 34.7545 29.121 34.3169 28.6834C33.8793 28.2458 33.2858 28 32.667 28ZM37.3337 18.6667H18.667C18.0482 18.6667 17.4547 18.9125 17.0171 19.3501C16.5795 19.7877 16.3337 20.3812 16.3337 21C16.3337 21.6188 16.5795 22.2123 17.0171 22.6499C17.4547 23.0875 18.0482 23.3333 18.667 23.3333H37.3337C37.9525 23.3333 38.546 23.0875 38.9836 22.6499C39.4212 22.2123 39.667 21.6188 39.667 21C39.667 20.3812 39.4212 19.7877 38.9836 19.3501C38.546 18.9125 37.9525 18.6667 37.3337 18.6667Z" fill="#785D13"/>
<path d="M10.9034 57.068C10.8961 57.1267 10.8851 57.2183 10.8704 57.343C10.8558 57.4603 10.8411 57.5813 10.8264 57.706C10.8191 57.8233 10.8118 57.9297 10.8044 58.025C10.7898 58.2377 10.7751 58.4723 10.7604 58.729C10.7531 58.9783 10.7458 59.2387 10.7384 59.51C10.7311 59.774 10.7238 60.0417 10.7164 60.313C10.7164 60.5843 10.7164 60.8483 10.7164 61.105C10.7164 61.4057 10.7201 61.7393 10.7274 62.106C10.7348 62.4653 10.7421 62.8247 10.7494 63.184C10.7641 63.536 10.7714 63.8587 10.7714 64.152C10.7788 64.4453 10.7824 64.6727 10.7824 64.834C10.7824 65.2887 10.7311 65.6407 10.6284 65.89C10.5331 66.1393 10.3938 66.3117 10.2104 66.407C10.0271 66.5097 9.81442 66.561 9.57242 66.561C9.30842 66.561 9.02609 66.506 8.72542 66.396C8.42476 66.2933 8.14242 66.1467 7.87842 65.956C7.62176 65.7653 7.40909 65.5453 7.24042 65.296C7.07909 65.0393 6.99842 64.7643 6.99842 64.471C6.99842 64.119 7.13042 63.7707 7.39442 63.426C7.66576 63.074 8.02142 62.7513 8.46142 62.458C8.90876 62.1647 9.38909 61.93 9.90242 61.754C10.3938 61.5707 10.8998 61.4387 11.4204 61.358C11.9411 61.27 12.4104 61.226 12.8284 61.226C13.3931 61.226 13.9028 61.3213 14.3574 61.512C14.8121 61.6953 15.1751 61.9667 15.4464 62.326C15.7178 62.6853 15.8534 63.118 15.8534 63.624C15.8534 64.0493 15.7728 64.4417 15.6114 64.801C15.4501 65.1603 15.1898 65.472 14.8304 65.736C14.4784 65.9927 14.0091 66.1943 13.4224 66.341C13.1731 66.3923 12.9238 66.429 12.6744 66.451C12.4324 66.4803 12.2014 66.5023 11.9814 66.517L11.4754 65.098C11.7248 65.098 11.9631 65.0943 12.1904 65.087C12.4251 65.0723 12.6378 65.0503 12.8284 65.021C13.1291 64.9623 13.4004 64.8743 13.6424 64.757C13.8844 64.6397 14.0751 64.4857 14.2144 64.295C14.3538 64.1043 14.4234 63.877 14.4234 63.613C14.4234 63.3637 14.3538 63.151 14.2144 62.975C14.0824 62.799 13.8954 62.6633 13.6534 62.568C13.4114 62.4727 13.1291 62.425 12.8064 62.425C12.3444 62.425 11.8751 62.4727 11.3984 62.568C10.9291 62.6633 10.4781 62.7953 10.0454 62.964C9.72276 63.0887 9.43309 63.2353 9.17642 63.404C8.91976 63.5653 8.71809 63.734 8.57142 63.91C8.42476 64.086 8.35142 64.2547 8.35142 64.416C8.35142 64.504 8.37709 64.5883 8.42842 64.669C8.48709 64.7423 8.56042 64.8083 8.64842 64.867C8.73642 64.9257 8.82442 64.9733 8.91242 65.01C9.00776 65.0393 9.08842 65.054 9.15442 65.054C9.25709 65.054 9.34142 65.0247 9.40742 64.966C9.47342 64.9 9.50642 64.7753 9.50642 64.592C9.50642 64.394 9.49909 64.1117 9.48442 63.745C9.47709 63.371 9.46609 62.9567 9.45142 62.502C9.44409 62.0473 9.44042 61.5963 9.44042 61.149C9.44042 60.841 9.44042 60.5293 9.44042 60.214C9.44776 59.8987 9.45142 59.598 9.45142 59.312C9.45142 59.026 9.45142 58.773 9.45142 58.553C9.45876 58.333 9.46242 58.1607 9.46242 58.036C9.46242 57.9553 9.45876 57.8527 9.45142 57.728C9.44409 57.6033 9.43309 57.4787 9.41842 57.354C9.41109 57.222 9.40009 57.1267 9.38542 57.068H10.9034ZM14.0384 58.256C14.3171 58.388 14.6288 58.5493 14.9734 58.74C15.3254 58.9307 15.6591 59.1213 15.9744 59.312C16.2971 59.4953 16.5538 59.6603 16.7444 59.807L16.0844 60.929C15.9451 60.8117 15.7618 60.6797 15.5344 60.533C15.3144 60.3863 15.0724 60.236 14.8084 60.082C14.5518 59.928 14.3024 59.785 14.0604 59.653C13.8184 59.5137 13.6094 59.4037 13.4334 59.323L14.0384 58.256ZM7.29542 58.861C7.61809 58.8977 7.90042 58.9233 8.14242 58.938C8.39176 58.9453 8.61542 58.949 8.81342 58.949C9.09942 58.949 9.41476 58.938 9.75942 58.916C10.1041 58.8867 10.4561 58.85 10.8154 58.806C11.1748 58.7547 11.5231 58.696 11.8604 58.63C12.2051 58.564 12.5168 58.4907 12.7954 58.41L12.8284 59.774C12.5204 59.8473 12.1868 59.9133 11.8274 59.972C11.4681 60.0233 11.1051 60.071 10.7384 60.115C10.3791 60.159 10.0344 60.192 9.70442 60.214C9.38176 60.236 9.09942 60.247 8.85742 60.247C8.49076 60.247 8.19009 60.2433 7.95542 60.236C7.72076 60.2287 7.50809 60.214 7.31742 60.192L7.29542 58.861ZM23.5864 64.625H26.6004V65.868H23.5864V64.625ZM23.0034 57.607H27.2164V66.506H25.8854V58.839H24.2794V66.671H23.0034V57.607ZM19.5604 58.641H20.8914V60.753C20.8914 61.2223 20.8584 61.732 20.7924 62.282C20.7338 62.832 20.6091 63.3893 20.4184 63.954C20.2351 64.5187 19.9711 65.0613 19.6264 65.582C19.2891 66.0953 18.8454 66.5537 18.2954 66.957C18.2368 66.8617 18.1488 66.748 18.0314 66.616C17.9141 66.484 17.7931 66.3557 17.6684 66.231C17.5511 66.1063 17.4448 66.0147 17.3494 65.956C17.8554 65.5967 18.2551 65.2007 18.5484 64.768C18.8491 64.328 19.0691 63.877 19.2084 63.415C19.3551 62.9457 19.4504 62.4837 19.4944 62.029C19.5384 61.567 19.5604 61.138 19.5604 60.742V58.641ZM18.6584 58.047H22.4424V59.268H18.6584V58.047ZM17.5144 61.017H22.7064V62.26H17.5144V61.017ZM20.5724 62.557C20.6604 62.6377 20.7814 62.7623 20.9354 62.931C21.0968 63.0923 21.2691 63.2757 21.4524 63.481C21.6358 63.6863 21.8191 63.8917 22.0024 64.097C22.1858 64.3023 22.3471 64.4893 22.4864 64.658C22.6331 64.8193 22.7394 64.9403 22.8054 65.021L21.9144 66.143C21.8118 65.9817 21.6908 65.802 21.5514 65.604C21.4121 65.3987 21.2618 65.1897 21.1004 64.977C20.9391 64.7643 20.7778 64.5553 20.6164 64.35C20.4551 64.1447 20.2974 63.954 20.1434 63.778C19.9968 63.5947 19.8684 63.437 19.7584 63.305L20.5724 62.557ZM18.5374 56.661L19.8024 56.914C19.7144 57.398 19.5971 57.8747 19.4504 58.344C19.3038 58.806 19.1388 59.246 18.9554 59.664C18.7721 60.0747 18.5778 60.434 18.3724 60.742C18.2918 60.6687 18.1854 60.5843 18.0534 60.489C17.9288 60.3937 17.7968 60.2983 17.6574 60.203C17.5181 60.1077 17.4008 60.0343 17.3054 59.983C17.6061 59.5797 17.8591 59.081 18.0644 58.487C18.2771 57.893 18.4348 57.2843 18.5374 56.661ZM31.7814 57.145C32.0454 57.2257 32.3754 57.31 32.7714 57.398C33.1674 57.486 33.5818 57.574 34.0144 57.662C34.4471 57.7427 34.8541 57.8123 35.2354 57.871C35.6241 57.9297 35.9394 57.9737 36.1814 58.003L35.8514 59.345C35.6314 59.3157 35.3638 59.2753 35.0484 59.224C34.7404 59.1653 34.4104 59.103 34.0584 59.037C33.7138 58.971 33.3728 58.905 33.0354 58.839C32.6981 58.7657 32.3901 58.696 32.1114 58.63C31.8328 58.564 31.6054 58.509 31.4294 58.465L31.7814 57.145ZM31.8474 59.356C31.8108 59.5027 31.7704 59.6933 31.7264 59.928C31.6898 60.1553 31.6531 60.3937 31.6164 60.643C31.5798 60.8923 31.5431 61.1307 31.5064 61.358C31.4771 61.5853 31.4514 61.776 31.4294 61.93C31.9281 61.5707 32.4488 61.3067 32.9914 61.138C33.5414 60.9693 34.1024 60.885 34.6744 60.885C35.3198 60.885 35.8698 61.0023 36.3244 61.237C36.7791 61.4717 37.1238 61.7797 37.3584 62.161C37.6004 62.5423 37.7214 62.9567 37.7214 63.404C37.7214 63.9027 37.6151 64.3647 37.4024 64.79C37.1898 65.2153 36.8414 65.5783 36.3574 65.879C35.8734 66.1797 35.2391 66.3923 34.4544 66.517C33.6698 66.6417 32.7054 66.6563 31.5614 66.561L31.1434 65.12C32.2434 65.2667 33.1674 65.2887 33.9154 65.186C34.6634 65.076 35.2281 64.8633 35.6094 64.548C35.9981 64.2253 36.1924 63.833 36.1924 63.371C36.1924 63.129 36.1228 62.9163 35.9834 62.733C35.8441 62.5423 35.6498 62.3957 35.4004 62.293C35.1511 62.183 34.8688 62.128 34.5534 62.128C33.9374 62.128 33.3581 62.2417 32.8154 62.469C32.2801 62.689 31.8401 63.008 31.4954 63.426C31.4001 63.5433 31.3194 63.6533 31.2534 63.756C31.1948 63.8513 31.1398 63.954 31.0884 64.064L29.8234 63.745C29.8674 63.5323 29.9114 63.283 29.9554 62.997C29.9994 62.7037 30.0434 62.392 30.0874 62.062C30.1314 61.7247 30.1718 61.3873 30.2084 61.05C30.2451 60.7127 30.2781 60.379 30.3074 60.049C30.3368 59.719 30.3588 59.4183 30.3734 59.147L31.8474 59.356ZM47.3076 57.365C47.3002 57.4237 47.2929 57.5117 47.2856 57.629C47.2782 57.739 47.2709 57.8563 47.2636 57.981C47.2562 58.1057 47.2489 58.2193 47.2416 58.322C47.2416 58.564 47.2379 58.7987 47.2306 59.026C47.2306 59.2533 47.2269 59.4697 47.2196 59.675C47.2196 59.873 47.2159 60.0673 47.2086 60.258C47.2012 60.5807 47.1902 60.918 47.1756 61.27C47.1609 61.622 47.1426 61.9483 47.1206 62.249C47.0986 62.5497 47.0692 62.7953 47.0326 62.986C46.9739 63.272 46.8712 63.4663 46.7246 63.569C46.5779 63.6643 46.3616 63.712 46.0756 63.712C45.9509 63.712 45.7786 63.7047 45.5586 63.69C45.3459 63.668 45.1332 63.6423 44.9206 63.613C44.7152 63.5837 44.5466 63.5617 44.4146 63.547L44.4476 62.326C44.6162 62.3627 44.7996 62.3957 44.9976 62.425C45.2029 62.4543 45.3569 62.469 45.4596 62.469C45.5696 62.469 45.6502 62.4543 45.7016 62.425C45.7602 62.3883 45.7932 62.3187 45.8006 62.216C45.8226 62.0767 45.8372 61.9007 45.8446 61.688C45.8592 61.4753 45.8702 61.2443 45.8776 60.995C45.8922 60.7383 45.9032 60.489 45.9106 60.247C45.9106 60.049 45.9106 59.851 45.9106 59.653C45.9106 59.4477 45.9106 59.2387 45.9106 59.026C45.9106 58.806 45.9106 58.5897 45.9106 58.377C45.9106 58.2817 45.9032 58.1717 45.8886 58.047C45.8812 57.915 45.8739 57.7867 45.8666 57.662C45.8592 57.5373 45.8482 57.4383 45.8336 57.365H47.3076ZM42.9846 57.695C42.9552 57.8783 42.9369 58.058 42.9296 58.234C42.9222 58.4027 42.9186 58.6043 42.9186 58.839C42.9186 59.037 42.9149 59.301 42.9076 59.631C42.9076 59.961 42.9039 60.3203 42.8966 60.709C42.8966 61.0903 42.8929 61.4753 42.8856 61.864C42.8856 62.2453 42.8856 62.5937 42.8856 62.909C42.8856 63.2243 42.8892 63.4737 42.8966 63.657C42.9039 63.9283 42.9222 64.152 42.9516 64.328C42.9882 64.4967 43.0616 64.6287 43.1716 64.724C43.2816 64.8193 43.4539 64.8853 43.6886 64.922C43.9306 64.9587 44.2569 64.977 44.6676 64.977C45.0269 64.977 45.4082 64.966 45.8116 64.944C46.2149 64.9147 46.6036 64.878 46.9776 64.834C47.3516 64.79 47.6779 64.746 47.9566 64.702L47.9016 66.198C47.6596 66.2273 47.3589 66.253 46.9996 66.275C46.6402 66.3043 46.2662 66.3263 45.8776 66.341C45.4889 66.363 45.1186 66.374 44.7666 66.374C44.0552 66.374 43.4869 66.3337 43.0616 66.253C42.6362 66.1723 42.3136 66.0367 42.0936 65.846C41.8736 65.6553 41.7269 65.3987 41.6536 65.076C41.5802 64.7533 41.5362 64.3537 41.5216 63.877C41.5216 63.7157 41.5179 63.4993 41.5106 63.228C41.5106 62.9567 41.5106 62.656 41.5106 62.326C41.5106 61.9887 41.5106 61.644 41.5106 61.292C41.5106 60.94 41.5106 60.6063 41.5106 60.291C41.5179 59.9683 41.5216 59.686 41.5216 59.444C41.5216 59.202 41.5216 59.026 41.5216 58.916C41.5216 58.6887 41.5142 58.476 41.4996 58.278C41.4849 58.08 41.4629 57.8857 41.4336 57.695H42.9846ZM39.2996 60.181C39.4609 60.181 39.6626 60.1737 39.9046 60.159C40.1466 60.1443 40.4069 60.126 40.6856 60.104C40.9056 60.082 41.2319 60.0527 41.6646 60.016C42.0972 59.972 42.5886 59.9243 43.1386 59.873C43.6886 59.8217 44.2606 59.7703 44.8546 59.719C45.4559 59.6603 46.0316 59.609 46.5816 59.565C47.1316 59.521 47.6192 59.4843 48.0446 59.455C48.1986 59.4403 48.3709 59.4293 48.5616 59.422C48.7596 59.4073 48.9392 59.3927 49.1006 59.378V60.731C49.0419 60.7237 48.9466 60.72 48.8146 60.72C48.6826 60.72 48.5432 60.7237 48.3966 60.731C48.2572 60.731 48.1399 60.7347 48.0446 60.742C47.7586 60.7493 47.4102 60.7677 46.9996 60.797C46.5889 60.819 46.1489 60.852 45.6796 60.896C45.2102 60.9327 44.7299 60.9767 44.2386 61.028C43.7546 61.072 43.2889 61.1197 42.8416 61.171C42.3942 61.2223 41.9909 61.2663 41.6316 61.303C41.2722 61.3397 40.9862 61.369 40.7736 61.391C40.6562 61.4057 40.5132 61.4277 40.3446 61.457C40.1759 61.479 40.0072 61.5047 39.8386 61.534C39.6772 61.556 39.5489 61.5743 39.4536 61.589L39.2996 60.181Z" fill="#785D13"/>
</svg>
