<svg width="56" height="69" viewBox="0 0 56 69" fill="none" xmlns="http://www.w3.org/2000/svg">
<path d="M18.6667 21H37.3333M18.6667 30.3334H32.6667M42 9.33337C43.8565 9.33337 45.637 10.0709 46.9497 11.3836C48.2625 12.6964 49 14.4769 49 16.3334V35C49 36.8566 48.2625 38.637 46.9497 39.9498C45.637 41.2625 43.8565 42 42 42H30.3333L18.6667 49V42H14C12.1435 42 10.363 41.2625 9.05025 39.9498C7.7375 38.637 7 36.8566 7 35V16.3334C7 14.4769 7.7375 12.6964 9.05025 11.3836C10.363 10.0709 12.1435 9.33337 14 9.33337H42Z" stroke="#808080" stroke-width="4" stroke-linecap="round" stroke-linejoin="round"/>
<path d="M10.6284 57.211C10.6138 57.277 10.6028 57.354 10.5954 57.442C10.5881 57.5227 10.5808 57.6107 10.5734 57.706C10.5661 57.8013 10.5588 57.8893 10.5514 57.97C10.5441 58.1387 10.5331 58.3587 10.5184 58.63C10.5111 58.9013 10.5038 59.202 10.4964 59.532C10.4891 59.8547 10.4818 60.1847 10.4744 60.522C10.4671 60.852 10.4634 61.16 10.4634 61.446C10.4634 61.732 10.4634 62.0473 10.4634 62.392C10.4708 62.7293 10.4781 63.0667 10.4854 63.404C10.5001 63.734 10.5074 64.042 10.5074 64.328C10.5148 64.6067 10.5184 64.8303 10.5184 64.999C10.5184 65.3363 10.4781 65.604 10.3974 65.802C10.3168 66 10.2031 66.1393 10.0564 66.22C9.91709 66.308 9.74842 66.352 9.55042 66.352C9.33776 66.352 9.09942 66.3007 8.83542 66.198C8.57142 66.1027 8.31842 65.9707 8.07642 65.802C7.84176 65.6333 7.64742 65.439 7.49342 65.219C7.33942 64.999 7.26242 64.768 7.26242 64.526C7.26242 64.196 7.38709 63.8733 7.63642 63.558C7.89309 63.2427 8.22309 62.9493 8.62642 62.678C9.03709 62.4067 9.46976 62.1867 9.92442 62.018C10.4231 61.82 10.9328 61.6733 11.4534 61.578C11.9741 61.4753 12.4508 61.424 12.8834 61.424C13.4188 61.424 13.8918 61.5157 14.3024 61.699C14.7204 61.8823 15.0468 62.139 15.2814 62.469C15.5234 62.7917 15.6444 63.173 15.6444 63.613C15.6444 64.053 15.5528 64.4417 15.3694 64.779C15.1934 65.1163 14.9294 65.3987 14.5774 65.626C14.2328 65.8533 13.8074 66.0293 13.3014 66.154C13.0594 66.2053 12.8174 66.2383 12.5754 66.253C12.3408 66.275 12.1281 66.2933 11.9374 66.308L11.6294 65.417C11.8348 65.4243 12.0474 65.4243 12.2674 65.417C12.4948 65.4097 12.7111 65.384 12.9164 65.34C13.2391 65.2813 13.5398 65.1823 13.8184 65.043C14.1044 64.8963 14.3318 64.7057 14.5004 64.471C14.6764 64.2363 14.7644 63.954 14.7644 63.624C14.7644 63.3087 14.6801 63.0447 14.5114 62.832C14.3428 62.6193 14.1154 62.458 13.8294 62.348C13.5434 62.238 13.2244 62.183 12.8724 62.183C12.3884 62.183 11.9154 62.2343 11.4534 62.337C10.9914 62.4397 10.5221 62.5863 10.0454 62.777C9.69342 62.909 9.37076 63.074 9.07742 63.272C8.78409 63.4627 8.54942 63.6643 8.37342 63.877C8.20476 64.0897 8.12042 64.2913 8.12042 64.482C8.12042 64.6067 8.16076 64.7277 8.24142 64.845C8.32942 64.955 8.43576 65.054 8.56042 65.142C8.68509 65.23 8.81709 65.2997 8.95642 65.351C9.09576 65.395 9.21676 65.417 9.31942 65.417C9.44409 65.417 9.53942 65.373 9.60542 65.285C9.67876 65.197 9.71542 65.0613 9.71542 64.878C9.71542 64.6653 9.71176 64.372 9.70442 63.998C9.69709 63.6167 9.68976 63.206 9.68242 62.766C9.67509 62.3187 9.67142 61.8933 9.67142 61.49C9.67142 61.1747 9.67142 60.8373 9.67142 60.478C9.67876 60.1187 9.68242 59.7703 9.68242 59.433C9.68976 59.0957 9.69342 58.7987 9.69342 58.542C9.70076 58.2853 9.70442 58.102 9.70442 57.992C9.70442 57.9187 9.70076 57.8343 9.69342 57.739C9.69342 57.6363 9.68976 57.5373 9.68242 57.442C9.67509 57.3467 9.66409 57.2697 9.64942 57.211H10.6284ZM14.0384 58.432C14.3024 58.5713 14.5958 58.74 14.9184 58.938C15.2411 59.1287 15.5491 59.323 15.8424 59.521C16.1431 59.719 16.3814 59.8913 16.5574 60.038L16.1064 60.742C15.9744 60.61 15.8058 60.4707 15.6004 60.324C15.3951 60.17 15.1751 60.0197 14.9404 59.873C14.7058 59.719 14.4748 59.576 14.2474 59.444C14.0201 59.3047 13.8184 59.1873 13.6424 59.092L14.0384 58.432ZM7.43842 59.191C7.73909 59.2277 7.99576 59.2533 8.20842 59.268C8.42842 59.2753 8.64109 59.279 8.84642 59.279C9.11776 59.279 9.42209 59.2643 9.75942 59.235C10.0968 59.2057 10.4451 59.169 10.8044 59.125C11.1638 59.0737 11.5121 59.015 11.8494 58.949C12.1941 58.8757 12.5021 58.7987 12.7734 58.718L12.7954 59.576C12.5094 59.642 12.1904 59.708 11.8384 59.774C11.4864 59.8327 11.1271 59.884 10.7604 59.928C10.4011 59.972 10.0564 60.0087 9.72642 60.038C9.39642 60.0673 9.11042 60.082 8.86842 60.082C8.55309 60.082 8.28542 60.0783 8.06542 60.071C7.85276 60.0637 7.65109 60.049 7.46042 60.027L7.43842 59.191ZM23.4764 64.911H26.7324V65.692H23.4764V64.911ZM23.1244 57.717H27.0954V66.44H26.2594V58.498H23.9274V66.561H23.1244V57.717ZM19.8794 58.619H20.7044V60.819C20.7044 61.2883 20.6714 61.7907 20.6054 62.326C20.5468 62.854 20.4221 63.3893 20.2314 63.932C20.0481 64.4673 19.7804 64.988 19.4284 65.494C19.0838 65.9927 18.6254 66.4437 18.0534 66.847C18.0241 66.7957 17.9728 66.7297 17.8994 66.649C17.8261 66.5683 17.7528 66.4877 17.6794 66.407C17.6061 66.3263 17.5401 66.2677 17.4814 66.231C18.0168 65.8497 18.4421 65.4353 18.7574 64.988C19.0801 64.5407 19.3184 64.0787 19.4724 63.602C19.6338 63.118 19.7401 62.6377 19.7914 62.161C19.8501 61.6843 19.8794 61.2333 19.8794 60.808V58.619ZM18.7464 58.234H22.4534V59.004H18.7464V58.234ZM17.6024 61.204H22.7724V61.996H17.6024V61.204ZM20.4404 62.645C20.5284 62.7257 20.6494 62.8503 20.8034 63.019C20.9648 63.1803 21.1408 63.3673 21.3314 63.58C21.5221 63.7853 21.7128 63.9943 21.9034 64.207C22.0941 64.4123 22.2628 64.5993 22.4094 64.768C22.5561 64.9367 22.6661 65.0613 22.7394 65.142L22.1784 65.846C22.0831 65.7067 21.9621 65.5453 21.8154 65.362C21.6688 65.1713 21.5074 64.9697 21.3314 64.757C21.1554 64.537 20.9794 64.3243 20.8034 64.119C20.6274 63.9063 20.4624 63.7157 20.3084 63.547C20.1618 63.371 20.0371 63.228 19.9344 63.118L20.4404 62.645ZM18.8344 56.749L19.6374 56.914C19.5348 57.4053 19.4064 57.8857 19.2524 58.355C19.1058 58.817 18.9371 59.2533 18.7464 59.664C18.5631 60.0673 18.3614 60.4267 18.1414 60.742C18.0974 60.6907 18.0351 60.6357 17.9544 60.577C17.8738 60.5183 17.7858 60.4597 17.6904 60.401C17.6024 60.3423 17.5291 60.2947 17.4704 60.258C17.7931 59.8327 18.0681 59.312 18.2954 58.696C18.5301 58.0727 18.7098 57.4237 18.8344 56.749ZM31.7924 57.376C32.0271 57.4493 32.3314 57.53 32.7054 57.618C33.0868 57.706 33.4864 57.794 33.9044 57.882C34.3298 57.9627 34.7331 58.036 35.1144 58.102C35.4958 58.1607 35.8074 58.201 36.0494 58.223L35.8404 59.07C35.6351 59.0407 35.3821 59.0003 35.0814 58.949C34.7881 58.8977 34.4728 58.839 34.1354 58.773C33.7981 58.707 33.4644 58.641 33.1344 58.575C32.8044 58.5017 32.5038 58.4357 32.2324 58.377C31.9611 58.311 31.7411 58.256 31.5724 58.212L31.7924 57.376ZM31.5504 59.378C31.5138 59.5687 31.4734 59.8033 31.4294 60.082C31.3928 60.3533 31.3524 60.6393 31.3084 60.94C31.2644 61.2407 31.2241 61.5267 31.1874 61.798C31.1508 62.0693 31.1178 62.293 31.0884 62.469C31.6238 62.007 32.1884 61.6697 32.7824 61.457C33.3838 61.237 34.0144 61.127 34.6744 61.127C35.2391 61.127 35.7304 61.2297 36.1484 61.435C36.5664 61.633 36.8928 61.908 37.1274 62.26C37.3621 62.6047 37.4794 62.9933 37.4794 63.426C37.4794 63.9173 37.3658 64.3647 37.1384 64.768C36.9184 65.164 36.5701 65.4977 36.0934 65.769C35.6241 66.0403 35.0228 66.231 34.2894 66.341C33.5561 66.4583 32.6761 66.473 31.6494 66.385L31.3854 65.483C32.5514 65.6223 33.5158 65.6187 34.2784 65.472C35.0411 65.318 35.6094 65.0613 35.9834 64.702C36.3648 64.3353 36.5554 63.9027 36.5554 63.404C36.5554 63.1107 36.4711 62.8503 36.3024 62.623C36.1338 62.3957 35.9028 62.2197 35.6094 62.095C35.3234 61.963 34.9934 61.897 34.6194 61.897C33.9008 61.897 33.2481 62.029 32.6614 62.293C32.0821 62.5497 31.5981 62.909 31.2094 63.371C31.1288 63.4663 31.0628 63.5617 31.0114 63.657C30.9601 63.745 30.9161 63.833 30.8794 63.921L30.0654 63.723C30.1094 63.5177 30.1534 63.272 30.1974 62.986C30.2414 62.6927 30.2854 62.381 30.3294 62.051C30.3734 61.7137 30.4138 61.3763 30.4504 61.039C30.4944 60.7017 30.5311 60.379 30.5604 60.071C30.5898 59.7557 30.6118 59.4843 30.6264 59.257L31.5504 59.378ZM47.0326 57.519C47.0252 57.5777 47.0179 57.6547 47.0106 57.75C47.0032 57.8453 46.9959 57.9443 46.9886 58.047C46.9886 58.1423 46.9849 58.2303 46.9776 58.311C46.9776 58.5383 46.9739 58.773 46.9666 59.015C46.9666 59.257 46.9629 59.4917 46.9556 59.719C46.9556 59.939 46.9519 60.1443 46.9446 60.335C46.9372 60.6137 46.9262 60.9217 46.9116 61.259C46.9042 61.589 46.8896 61.9043 46.8676 62.205C46.8529 62.5057 46.8236 62.7513 46.7796 62.942C46.7282 63.184 46.6366 63.349 46.5046 63.437C46.3799 63.525 46.1892 63.569 45.9326 63.569C45.8006 63.569 45.6392 63.5617 45.4486 63.547C45.2579 63.525 45.0746 63.503 44.8986 63.481C44.7226 63.459 44.5832 63.437 44.4806 63.415L44.5026 62.656C44.6932 62.7 44.8912 62.7367 45.0966 62.766C45.3092 62.788 45.4779 62.799 45.6026 62.799C45.7419 62.799 45.8409 62.7807 45.8996 62.744C45.9656 62.7073 46.0059 62.6267 46.0206 62.502C46.0499 62.3553 46.0719 62.1647 46.0866 61.93C46.1012 61.688 46.1122 61.4277 46.1196 61.149C46.1342 60.863 46.1452 60.5917 46.1526 60.335C46.1526 60.1297 46.1526 59.9133 46.1526 59.686C46.1526 59.4513 46.1526 59.2203 46.1526 58.993C46.1526 58.7583 46.1526 58.542 46.1526 58.344C46.1526 58.2633 46.1489 58.1717 46.1416 58.069C46.1416 57.9663 46.1379 57.8673 46.1306 57.772C46.1232 57.6693 46.1122 57.585 46.0976 57.519H47.0326ZM42.6766 57.86C42.6619 57.992 42.6509 58.1313 42.6436 58.278C42.6362 58.4247 42.6326 58.5823 42.6326 58.751C42.6326 58.9857 42.6289 59.2863 42.6216 59.653C42.6216 60.0123 42.6179 60.3973 42.6106 60.808C42.6106 61.2113 42.6106 61.6073 42.6106 61.996C42.6106 62.3847 42.6106 62.733 42.6106 63.041C42.6106 63.349 42.6142 63.58 42.6216 63.734C42.6362 64.0273 42.6546 64.2767 42.6766 64.482C42.7059 64.6873 42.7792 64.8523 42.8966 64.977C43.0139 65.1017 43.2046 65.1933 43.4686 65.252C43.7326 65.3107 44.1029 65.34 44.5796 65.34C44.9756 65.34 45.3789 65.329 45.7896 65.307C46.2002 65.2777 46.5852 65.2447 46.9446 65.208C47.3112 65.164 47.6119 65.12 47.8466 65.076L47.8136 66.011C47.5716 66.033 47.2709 66.0587 46.9116 66.088C46.5522 66.1173 46.1746 66.1393 45.7786 66.154C45.3826 66.176 44.9976 66.187 44.6236 66.187C43.9856 66.187 43.4796 66.1467 43.1056 66.066C42.7316 65.9853 42.4529 65.857 42.2696 65.681C42.0862 65.4977 41.9616 65.2557 41.8956 64.955C41.8369 64.6543 41.8002 64.2877 41.7856 63.855C41.7856 63.701 41.7819 63.4847 41.7746 63.206C41.7746 62.92 41.7746 62.601 41.7746 62.249C41.7746 61.8897 41.7746 61.5267 41.7746 61.16C41.7746 60.7933 41.7746 60.445 41.7746 60.115C41.7819 59.785 41.7856 59.5027 41.7856 59.268C41.7856 59.0333 41.7856 58.8757 41.7856 58.795C41.7856 58.6263 41.7782 58.4723 41.7636 58.333C41.7562 58.1863 41.7416 58.0287 41.7196 57.86H42.6766ZM39.3876 60.5C39.5636 60.5 39.7469 60.4927 39.9376 60.478C40.1356 60.4633 40.3336 60.4487 40.5316 60.434C40.7736 60.412 41.1182 60.379 41.5656 60.335C42.0129 60.291 42.5189 60.2433 43.0836 60.192C43.6556 60.1407 44.2459 60.0893 44.8546 60.038C45.4632 59.9793 46.0536 59.928 46.6256 59.884C47.2049 59.8327 47.7219 59.796 48.1766 59.774C48.3159 59.7593 48.4589 59.7483 48.6056 59.741C48.7596 59.7337 48.9026 59.7263 49.0346 59.719V60.577C48.9759 60.5697 48.8952 60.5697 48.7926 60.577C48.6972 60.577 48.5909 60.577 48.4736 60.577C48.3636 60.577 48.2609 60.577 48.1656 60.577C47.8722 60.5843 47.5166 60.6027 47.0986 60.632C46.6806 60.654 46.2259 60.687 45.7346 60.731C45.2506 60.7677 44.7556 60.8117 44.2496 60.863C43.7436 60.907 43.2559 60.9547 42.7866 61.006C42.3172 61.0573 41.8919 61.105 41.5106 61.149C41.1366 61.1857 40.8322 61.2187 40.5976 61.248C40.4876 61.2627 40.3629 61.281 40.2236 61.303C40.0916 61.3177 39.9596 61.336 39.8276 61.358C39.6956 61.3727 39.5819 61.3873 39.4866 61.402L39.3876 60.5Z" fill="#808080"/>
</svg>
