<svg width="56" height="70" viewBox="0 0 56 70" fill="none" xmlns="http://www.w3.org/2000/svg">
<path d="M30.3346 16.3334H25.668V25.6667H16.3346V30.3334H25.668V39.6668H30.3346V30.3334H39.668V25.6667H30.3346V16.3334ZM28.0013 4.66675C15.1213 4.66675 4.66797 15.1201 4.66797 28.0001C4.66797 40.8801 15.1213 51.3334 28.0013 51.3334C40.8813 51.3334 51.3346 40.8801 51.3346 28.0001C51.3346 15.1201 40.8813 4.66675 28.0013 4.66675ZM28.0013 46.6668C17.7113 46.6668 9.33464 38.2901 9.33464 28.0001C9.33464 17.7101 17.7113 9.33342 28.0013 9.33342C38.2913 9.33342 46.668 17.7101 46.668 28.0001C46.668 38.2901 38.2913 46.6668 28.0013 46.6668Z" fill="black" fill-opacity="0.5"/>
<path d="M19.144 61.66V65.908H18.268V62.5H16.588V61.66H19.144ZM19.144 65.512C19.432 65.952 19.832 66.28 20.344 66.496C20.856 66.712 21.46 66.832 22.156 66.856C22.484 66.872 22.88 66.884 23.344 66.892C23.816 66.892 24.308 66.888 24.82 66.88C25.34 66.872 25.84 66.86 26.32 66.844C26.8 66.828 27.22 66.808 27.58 66.784C27.54 66.848 27.5 66.936 27.46 67.048C27.42 67.16 27.384 67.272 27.352 67.384C27.32 67.504 27.296 67.608 27.28 67.696C26.952 67.712 26.564 67.724 26.116 67.732C25.668 67.74 25.204 67.744 24.724 67.744C24.244 67.752 23.776 67.752 23.32 67.744C22.872 67.744 22.484 67.74 22.156 67.732C21.372 67.7 20.7 67.572 20.14 67.348C19.588 67.124 19.12 66.772 18.736 66.292C18.448 66.548 18.152 66.804 17.848 67.06C17.544 67.324 17.228 67.592 16.9 67.864L16.432 66.94C16.72 66.748 17.028 66.528 17.356 66.28C17.692 66.024 18.016 65.768 18.328 65.512H19.144ZM16.72 57.748L17.38 57.208C17.644 57.376 17.912 57.572 18.184 57.796C18.456 58.012 18.704 58.232 18.928 58.456C19.16 58.68 19.348 58.888 19.492 59.08L18.772 59.68C18.652 59.488 18.476 59.276 18.244 59.044C18.02 58.812 17.772 58.584 17.5 58.36C17.236 58.128 16.976 57.924 16.72 57.748ZM20.92 58.168H26.236V61.324H20.92V60.556H25.36V58.936H20.92V58.168ZM22.876 56.884L23.908 57.052C23.788 57.34 23.664 57.628 23.536 57.916C23.416 58.204 23.308 58.452 23.212 58.66L22.372 58.48C22.468 58.248 22.564 57.984 22.66 57.688C22.756 57.384 22.828 57.116 22.876 56.884ZM20.476 58.168H21.364V65.872H20.476V58.168ZM20.956 62.464H26.716V65.872H20.956V65.104H25.84V63.232H20.956V62.464ZM35.26 66.028H38.524V66.892H35.26V66.028ZM28.636 59.188H33.256V60.076H28.636V59.188ZM34.864 58.408H38.956V67.684H38.056V59.284H35.728V67.78H34.864V58.408ZM33.016 59.188H33.88C33.88 59.188 33.88 59.22 33.88 59.284C33.88 59.34 33.88 59.408 33.88 59.488C33.88 59.56 33.88 59.616 33.88 59.656C33.856 60.992 33.832 62.116 33.808 63.028C33.784 63.94 33.752 64.688 33.712 65.272C33.672 65.848 33.62 66.292 33.556 66.604C33.5 66.916 33.424 67.136 33.328 67.264C33.216 67.416 33.1 67.524 32.98 67.588C32.86 67.66 32.712 67.708 32.536 67.732C32.368 67.756 32.152 67.764 31.888 67.756C31.632 67.756 31.372 67.748 31.108 67.732C31.1 67.596 31.072 67.444 31.024 67.276C30.984 67.108 30.924 66.96 30.844 66.832C31.124 66.856 31.384 66.872 31.624 66.88C31.864 66.88 32.036 66.88 32.14 66.88C32.228 66.888 32.304 66.88 32.368 66.856C32.432 66.824 32.492 66.768 32.548 66.688C32.612 66.6 32.668 66.412 32.716 66.124C32.764 65.828 32.808 65.4 32.848 64.84C32.888 64.28 32.92 63.556 32.944 62.668C32.968 61.772 32.992 60.684 33.016 59.404V59.188ZM30.34 57.076H31.228C31.22 58.188 31.2 59.272 31.168 60.328C31.136 61.384 31.052 62.384 30.916 63.328C30.788 64.272 30.572 65.14 30.268 65.932C29.972 66.716 29.56 67.396 29.032 67.972C28.984 67.9 28.92 67.824 28.84 67.744C28.76 67.672 28.676 67.6 28.588 67.528C28.5 67.456 28.416 67.396 28.336 67.348C28.736 66.932 29.06 66.444 29.308 65.884C29.564 65.324 29.764 64.712 29.908 64.048C30.052 63.376 30.152 62.664 30.208 61.912C30.272 61.152 30.308 60.368 30.316 59.56C30.332 58.744 30.34 57.916 30.34 57.076Z" fill="black" fill-opacity="0.5"/>
</svg>
