<svg width="56" height="69" viewBox="0 0 56 69" fill="none" xmlns="http://www.w3.org/2000/svg">
<path d="M27.9987 13.9999C30.5654 13.9999 32.6654 16.0999 32.6654 18.6666C32.6654 21.2333 30.5654 23.3333 27.9987 23.3333C25.432 23.3333 23.332 21.2333 23.332 18.6666C23.332 16.0999 25.432 13.9999 27.9987 13.9999ZM27.9987 37.3332C34.2987 37.3332 41.532 40.3432 41.9987 41.9999H13.9987C14.5354 40.3199 21.722 37.3332 27.9987 37.3332ZM27.9987 9.33325C22.842 9.33325 18.6654 13.5099 18.6654 18.6666C18.6654 23.8232 22.842 27.9999 27.9987 27.9999C33.1554 27.9999 37.332 23.8232 37.332 18.6666C37.332 13.5099 33.1554 9.33325 27.9987 9.33325ZM27.9987 32.6666C21.7687 32.6666 9.33203 35.7932 9.33203 41.9999V46.6666H46.6654V41.9999C46.6654 35.7932 34.2287 32.6666 27.9987 32.6666Z" fill="black" fill-opacity="0.5"/>
<path d="M22.467 57.112H23.248V58.454C23.248 58.762 23.2113 59.092 23.138 59.444C23.0647 59.796 22.929 60.137 22.731 60.467C22.533 60.797 22.236 61.094 21.84 61.358C21.8033 61.2993 21.7447 61.237 21.664 61.171C21.5907 61.0977 21.5137 61.028 21.433 60.962C21.3597 60.8887 21.2937 60.8373 21.235 60.808C21.587 60.5733 21.851 60.324 22.027 60.06C22.203 59.7887 22.3203 59.5137 22.379 59.235C22.4377 58.9563 22.467 58.6887 22.467 58.432V57.112ZM25.14 57.112H25.932V59.807C25.932 59.9317 25.943 60.0123 25.965 60.049C25.9943 60.0783 26.053 60.093 26.141 60.093C26.1703 60.093 26.2217 60.093 26.295 60.093C26.3683 60.093 26.4453 60.093 26.526 60.093C26.6067 60.093 26.6653 60.093 26.702 60.093C26.7607 60.093 26.8047 60.0673 26.834 60.016C26.8707 59.9647 26.8963 59.8547 26.911 59.686C26.933 59.51 26.944 59.246 26.944 58.894C27.0247 58.96 27.1347 59.0187 27.274 59.07C27.4133 59.1213 27.538 59.1617 27.648 59.191C27.626 59.6237 27.582 59.9573 27.516 60.192C27.4573 60.4267 27.3693 60.5917 27.252 60.687C27.142 60.775 26.988 60.819 26.79 60.819C26.7387 60.819 26.6617 60.819 26.559 60.819C26.4563 60.819 26.35 60.819 26.24 60.819C26.1373 60.819 26.064 60.819 26.02 60.819C25.7927 60.819 25.613 60.7897 25.481 60.731C25.3563 60.6723 25.2683 60.5733 25.217 60.434C25.1657 60.2873 25.14 60.082 25.14 59.818V57.112ZM23.061 62.293C23.435 63.2463 24.018 64.0603 24.81 64.735C25.6093 65.4097 26.5627 65.8863 27.67 66.165C27.6113 66.2163 27.5453 66.286 27.472 66.374C27.406 66.462 27.34 66.55 27.274 66.638C27.2153 66.726 27.164 66.803 27.12 66.869C25.9833 66.539 25.008 66.0037 24.194 65.263C23.3873 64.515 22.764 63.6057 22.324 62.535L23.061 62.293ZM26.141 61.523H26.295L26.438 61.49L26.977 61.699C26.7863 62.425 26.515 63.0703 26.163 63.635C25.8183 64.1923 25.415 64.6837 24.953 65.109C24.491 65.5343 23.985 65.89 23.435 66.176C22.8923 66.4693 22.3167 66.704 21.708 66.88C21.686 66.8067 21.6493 66.7223 21.598 66.627C21.5467 66.539 21.4917 66.451 21.433 66.363C21.3743 66.275 21.3157 66.2053 21.257 66.154C21.8143 66.0073 22.3497 65.8057 22.863 65.549C23.3763 65.2923 23.8493 64.9807 24.282 64.614C24.722 64.24 25.0997 63.8073 25.415 63.316C25.7303 62.8247 25.9723 62.2747 26.141 61.666V61.523ZM21.752 61.523H26.46V62.282H21.752V61.523ZM22.797 57.112H25.547V57.849H22.797V57.112ZM17.946 60.093H21.224V60.742H17.946V60.093ZM17.99 57.145H21.202V57.805H17.99V57.145ZM17.946 61.556H21.224V62.216H17.946V61.556ZM17.418 58.586H21.609V59.279H17.418V58.586ZM18.331 63.041H21.213V66.253H18.331V65.571H20.487V63.734H18.331V63.041ZM17.924 63.041H18.65V66.759H17.924V63.041ZM30.321 60.126H36.745V60.918H30.321V60.126ZM33.489 62.755H37.196V63.525H33.489V62.755ZM33.06 60.522H33.918V66.099L33.06 65.978V60.522ZM30.442 61.853L31.3 61.952C31.146 63.0593 30.8893 64.031 30.53 64.867C30.1707 65.703 29.683 66.3923 29.067 66.935C29.023 66.8837 28.957 66.8213 28.869 66.748C28.7883 66.682 28.704 66.6123 28.616 66.539C28.528 66.473 28.451 66.418 28.385 66.374C28.9937 65.8973 29.4593 65.274 29.782 64.504C30.112 63.734 30.332 62.8503 30.442 61.853ZM30.97 63.272C31.1607 63.8367 31.41 64.2913 31.718 64.636C32.026 64.9807 32.3817 65.2447 32.785 65.428C33.1883 65.6113 33.632 65.736 34.116 65.802C34.6073 65.868 35.1353 65.901 35.7 65.901C35.7807 65.901 35.9127 65.901 36.096 65.901C36.2793 65.901 36.4847 65.901 36.712 65.901C36.9467 65.901 37.185 65.901 37.427 65.901C37.669 65.901 37.889 65.901 38.087 65.901C38.285 65.901 38.4353 65.8973 38.538 65.89C38.5013 65.956 38.461 66.0403 38.417 66.143C38.373 66.2457 38.3327 66.3483 38.296 66.451C38.2667 66.5537 38.2447 66.6453 38.23 66.726H37.68H35.656C35.0033 66.726 34.3983 66.682 33.841 66.594C33.291 66.5133 32.7923 66.3593 32.345 66.132C31.905 65.9047 31.5127 65.582 31.168 65.164C30.8233 64.746 30.5337 64.2033 30.299 63.536L30.97 63.272ZM33.049 56.76H33.918V58.542H33.049V56.76ZM28.902 58.025H38.098V60.423H37.251V58.817H29.716V60.423H28.902V58.025Z" fill="black" fill-opacity="0.5"/>
</svg>
