<svg width="56" height="68" viewBox="0 0 56 68" fill="none" xmlns="http://www.w3.org/2000/svg">
<path d="M28.0003 13.2767L39.667 23.7767V42H35.0003V28H21.0003V42H16.3337V23.7767L28.0003 13.2767ZM28.0003 7L4.66699 28H11.667V46.6667H25.667V32.6667H30.3337V46.6667H44.3337V28H51.3337L28.0003 7Z" fill="black" fill-opacity="0.5"/>
<path d="M16.9136 56.592C16.8896 56.76 16.8416 57.192 16.8416 57.456C16.8416 58.092 16.8416 59.1 16.8416 59.676C16.8416 60.66 16.8416 64.548 16.8416 65.4C16.8416 66.036 16.5416 66.36 15.8216 66.36C15.3056 66.36 14.5976 66.324 14.1056 66.276L14.0216 65.316C14.5496 65.412 15.0896 65.46 15.4136 65.46C15.7376 65.46 15.8696 65.316 15.8816 65.004C15.8816 64.344 15.8816 60.252 15.8816 59.676C15.8816 59.268 15.8816 58.08 15.8816 57.444C15.8816 57.192 15.8336 56.772 15.7976 56.592H16.9136ZM11.5256 58.62C11.8616 58.656 12.1616 58.68 12.5456 58.68C13.2536 58.68 19.3136 58.68 20.0216 58.68C20.2976 58.68 20.7056 58.668 20.9936 58.62V59.616C20.6816 59.592 20.3216 59.592 20.0336 59.592C19.3136 59.592 13.2776 59.592 12.5456 59.592C12.1856 59.592 11.8376 59.604 11.5256 59.628V58.62ZM14.2856 61.44C13.7696 62.472 12.6536 63.996 11.9696 64.74L11.1536 64.176C11.9456 63.432 12.9776 62.004 13.4456 61.032L14.2856 61.44ZM19.3016 61.044C19.9376 61.812 20.8976 63.312 21.3776 64.176L20.4896 64.668C20.0096 63.732 19.1096 62.232 18.4856 61.476L19.3016 61.044ZM23.3936 60.804C23.7656 60.84 24.3896 60.876 25.0736 60.876C25.9496 60.876 30.7616 60.876 31.6496 60.876C32.2496 60.876 32.6696 60.828 32.9456 60.804V61.98C32.6936 61.968 32.1896 61.932 31.6616 61.932C30.7496 61.932 25.9616 61.932 25.0736 61.932C24.4136 61.932 23.7776 61.956 23.3936 61.98V60.804ZM40.0824 57.06C39.9624 57.348 39.8304 57.66 39.6624 58.176C39.2784 59.4 37.8864 63.708 37.3704 64.92L36.2904 64.956C36.8904 63.576 38.2824 59.232 38.6424 57.96C38.7984 57.408 38.8464 57.132 38.8824 56.808L40.0824 57.06ZM42.3624 61.08C43.2024 62.304 44.5224 64.728 45.0144 65.964L44.0184 66.408C43.5384 65.112 42.3144 62.616 41.4504 61.476L42.3624 61.08ZM35.8224 64.668C37.5504 64.584 41.8464 64.104 43.3944 63.876L43.6584 64.812C41.9904 65.028 37.5744 65.508 35.8824 65.676C35.5824 65.7 35.2224 65.748 34.8864 65.796L34.6944 64.692C35.0544 64.704 35.4744 64.692 35.8224 64.668Z" fill="black" fill-opacity="0.5"/>
</svg>
