<svg width="56" height="68" viewBox="0 0 56 68" fill="none" xmlns="http://www.w3.org/2000/svg">
<path d="M23.3301 44.3333V32.6666H32.6635V44.3333C32.6635 45.6166 33.7135 46.6666 34.9968 46.6666H41.9968C43.2801 46.6666 44.3301 45.6166 44.3301 44.3333V27.9999H48.2968C49.3701 27.9999 49.8835 26.6699 49.0668 25.9699L29.5601 8.39993C28.6735 7.6066 27.3201 7.6066 26.4335 8.39993L6.92681 25.9699C6.13348 26.6699 6.62348 27.9999 7.69681 27.9999H11.6635V44.3333C11.6635 45.6166 12.7135 46.6666 13.9968 46.6666H20.9968C22.2801 46.6666 23.3301 45.6166 23.3301 44.3333Z" fill="#785D13"/>
<path d="M17.2496 56.388C17.2416 56.444 17.2256 56.536 17.2016 56.664C17.1856 56.792 17.1696 56.928 17.1536 57.072C17.1456 57.216 17.1416 57.336 17.1416 57.432C17.1416 57.672 17.1416 57.936 17.1416 58.224C17.1416 58.512 17.1416 58.8 17.1416 59.088C17.1416 59.368 17.1416 59.624 17.1416 59.856C17.1416 60.016 17.1416 60.24 17.1416 60.528C17.1416 60.816 17.1416 61.14 17.1416 61.5C17.1416 61.86 17.1416 62.236 17.1416 62.628C17.1416 63.012 17.1416 63.388 17.1416 63.756C17.1416 64.116 17.1416 64.444 17.1416 64.74C17.1416 65.028 17.1416 65.256 17.1416 65.424C17.1416 65.768 17.0376 66.04 16.8296 66.24C16.6296 66.448 16.3136 66.552 15.8816 66.552C15.6656 66.552 15.4456 66.548 15.2216 66.54C14.9976 66.532 14.7776 66.52 14.5616 66.504C14.3456 66.488 14.1376 66.468 13.9376 66.444L13.7816 64.956C14.0456 65.004 14.2976 65.04 14.5376 65.064C14.7776 65.088 14.9736 65.1 15.1256 65.1C15.2776 65.1 15.3856 65.068 15.4496 65.004C15.5136 64.932 15.5496 64.82 15.5576 64.668C15.5576 64.596 15.5576 64.44 15.5576 64.2C15.5656 63.96 15.5696 63.676 15.5696 63.348C15.5696 63.02 15.5696 62.672 15.5696 62.304C15.5696 61.936 15.5696 61.584 15.5696 61.248C15.5696 60.912 15.5696 60.62 15.5696 60.372C15.5696 60.124 15.5696 59.952 15.5696 59.856C15.5696 59.712 15.5696 59.496 15.5696 59.208C15.5696 58.912 15.5696 58.6 15.5696 58.272C15.5696 57.944 15.5696 57.664 15.5696 57.432C15.5696 57.272 15.5576 57.084 15.5336 56.868C15.5096 56.652 15.4896 56.492 15.4736 56.388H17.2496ZM11.3696 58.308C11.5456 58.324 11.7336 58.344 11.9336 58.368C12.1416 58.384 12.3376 58.392 12.5216 58.392C12.6256 58.392 12.8216 58.392 13.1096 58.392C13.4056 58.392 13.7536 58.392 14.1536 58.392C14.5616 58.392 15.0016 58.392 15.4736 58.392C15.9456 58.392 16.4176 58.392 16.8896 58.392C17.3616 58.392 17.8056 58.392 18.2216 58.392C18.6376 58.392 18.9936 58.392 19.2896 58.392C19.5936 58.392 19.8056 58.392 19.9256 58.392C20.0936 58.392 20.2936 58.384 20.5256 58.368C20.7576 58.352 20.9536 58.332 21.1136 58.308V59.88C20.9296 59.864 20.7296 59.856 20.5136 59.856C20.2976 59.848 20.1056 59.844 19.9376 59.844C19.8176 59.844 19.6096 59.844 19.3136 59.844C19.0176 59.844 18.6616 59.844 18.2456 59.844C17.8296 59.844 17.3856 59.844 16.9136 59.844C16.4416 59.844 15.9696 59.844 15.4976 59.844C15.0336 59.844 14.5936 59.844 14.1776 59.844C13.7696 59.844 13.4216 59.844 13.1336 59.844C12.8456 59.844 12.6416 59.844 12.5216 59.844C12.3456 59.844 12.1496 59.848 11.9336 59.856C11.7256 59.864 11.5376 59.876 11.3696 59.892V58.308ZM14.4296 61.56C14.2856 61.824 14.1176 62.112 13.9256 62.424C13.7336 62.736 13.5256 63.048 13.3016 63.36C13.0856 63.672 12.8736 63.964 12.6656 64.236C12.4576 64.5 12.2736 64.72 12.1136 64.896L10.8056 64.008C11.0056 63.824 11.2096 63.608 11.4176 63.36C11.6336 63.104 11.8416 62.836 12.0416 62.556C12.2496 62.276 12.4376 61.996 12.6056 61.716C12.7816 61.436 12.9336 61.168 13.0616 60.912L14.4296 61.56ZM19.5776 60.876C19.7296 61.068 19.8976 61.296 20.0816 61.56C20.2736 61.824 20.4656 62.108 20.6576 62.412C20.8496 62.708 21.0296 63 21.1976 63.288C21.3656 63.568 21.5096 63.816 21.6296 64.032L20.2256 64.8C20.0976 64.544 19.9496 64.268 19.7816 63.972C19.6216 63.676 19.4536 63.38 19.2776 63.084C19.1016 62.788 18.9256 62.512 18.7496 62.256C18.5736 61.992 18.4136 61.768 18.2696 61.584L19.5776 60.876ZM23.2856 60.444C23.4296 60.452 23.6136 60.464 23.8376 60.48C24.0616 60.488 24.2936 60.496 24.5336 60.504C24.7816 60.512 25.0096 60.516 25.2176 60.516C25.4176 60.516 25.6656 60.516 25.9616 60.516C26.2576 60.516 26.5776 60.516 26.9216 60.516C27.2736 60.516 27.6336 60.516 28.0016 60.516C28.3776 60.516 28.7496 60.516 29.1176 60.516C29.4856 60.516 29.8336 60.516 30.1616 60.516C30.4896 60.516 30.7816 60.516 31.0376 60.516C31.3016 60.516 31.5096 60.516 31.6616 60.516C31.9416 60.516 32.2056 60.508 32.4536 60.492C32.7016 60.468 32.9056 60.452 33.0656 60.444V62.328C32.9296 62.32 32.7256 62.308 32.4536 62.292C32.1816 62.276 31.9176 62.268 31.6616 62.268C31.5096 62.268 31.3016 62.268 31.0376 62.268C30.7736 62.268 30.4776 62.268 30.1496 62.268C29.8216 62.268 29.4736 62.268 29.1056 62.268C28.7456 62.268 28.3776 62.268 28.0016 62.268C27.6256 62.268 27.2616 62.268 26.9096 62.268C26.5656 62.268 26.2456 62.268 25.9496 62.268C25.6616 62.268 25.4176 62.268 25.2176 62.268C24.8736 62.268 24.5216 62.276 24.1616 62.292C23.8016 62.3 23.5096 62.312 23.2856 62.328V60.444ZM40.4784 56.952C40.3984 57.128 40.3144 57.328 40.2264 57.552C40.1384 57.768 40.0504 58.012 39.9624 58.284C39.8904 58.508 39.7984 58.796 39.6864 59.148C39.5744 59.492 39.4504 59.872 39.3144 60.288C39.1784 60.696 39.0344 61.12 38.8824 61.56C38.7384 61.992 38.5984 62.412 38.4624 62.82C38.3264 63.228 38.1984 63.6 38.0784 63.936C37.9584 64.264 37.8544 64.532 37.7664 64.74L35.9904 64.8C36.1024 64.544 36.2264 64.232 36.3624 63.864C36.4984 63.496 36.6424 63.096 36.7944 62.664C36.9464 62.224 37.0944 61.776 37.2384 61.32C37.3904 60.864 37.5304 60.424 37.6584 60C37.7944 59.576 37.9144 59.184 38.0184 58.824C38.1304 58.464 38.2184 58.172 38.2824 57.948C38.3624 57.636 38.4224 57.38 38.4624 57.18C38.5104 56.972 38.5464 56.764 38.5704 56.556L40.4784 56.952ZM42.6264 60.828C42.8424 61.148 43.0744 61.524 43.3224 61.956C43.5704 62.388 43.8144 62.84 44.0544 63.312C44.3024 63.776 44.5304 64.224 44.7384 64.656C44.9464 65.088 45.1184 65.476 45.2544 65.82L43.6344 66.54C43.4984 66.172 43.3304 65.756 43.1304 65.292C42.9384 64.828 42.7264 64.356 42.4944 63.876C42.2704 63.396 42.0384 62.944 41.7984 62.52C41.5664 62.088 41.3424 61.728 41.1264 61.44L42.6264 60.828ZM35.8824 64.272C36.1544 64.256 36.4824 64.236 36.8664 64.212C37.2584 64.18 37.6784 64.144 38.1264 64.104C38.5744 64.056 39.0304 64.008 39.4944 63.96C39.9664 63.912 40.4264 63.864 40.8744 63.816C41.3304 63.76 41.7544 63.708 42.1464 63.66C42.5384 63.612 42.8704 63.568 43.1424 63.528L43.5024 65.064C43.2064 65.104 42.8504 65.148 42.4344 65.196C42.0264 65.244 41.5864 65.296 41.1144 65.352C40.6424 65.4 40.1624 65.452 39.6744 65.508C39.1864 65.564 38.7104 65.616 38.2464 65.664C37.7824 65.712 37.3544 65.756 36.9624 65.796C36.5704 65.828 36.2384 65.86 35.9664 65.892C35.8144 65.908 35.6344 65.932 35.4264 65.964C35.2264 65.988 35.0304 66.012 34.8384 66.036L34.5624 64.284C34.7624 64.284 34.9824 64.284 35.2224 64.284C35.4704 64.284 35.6904 64.28 35.8824 64.272Z" fill="#785D13"/>
</svg>
